<?xml version="1.0" encoding="UTF-8" standalone="no"?>
<svg
   width="500"
   height="577.83472"
   viewBox="0 0 38.5512 44.552443"
   version="1.1"
   id="svg862"
   sodipodi:docname="Escudo_del_Club_Deportivo_Riestra.svg"
   inkscape:version="1.1 (c68e22c387, 2021-05-23)"
   xmlns:inkscape="http://www.inkscape.org/namespaces/inkscape"
   xmlns:sodipodi="http://sodipodi.sourceforge.net/DTD/sodipodi-0.dtd"
   xmlns="http://www.w3.org/2000/svg"
   xmlns:svg="http://www.w3.org/2000/svg">
  <defs
     id="defs866" />
  <sodipodi:namedview
     id="namedview864"
     pagecolor="#ffffff"
     bordercolor="#666666"
     borderopacity="1.0"
     inkscape:pageshadow="2"
     inkscape:pageopacity="0.0"
     inkscape:pagecheckerboard="0"
     showgrid="false"
     inkscape:zoom="0.56229131"
     inkscape:cx="56.020784"
     inkscape:cy="219.63704"
     inkscape:window-width="1366"
     inkscape:window-height="705"
     inkscape:window-x="-8"
     inkscape:window-y="-8"
     inkscape:window-maximized="1"
     inkscape:current-layer="g1070" />
  <g
     fill-rule="evenodd"
     clip-rule="evenodd"
     id="g860"
     transform="translate(-90.674773,-30.75841)">
    <g
       id="g1070"
       transform="matrix(0.23813501,0,0,0.23813501,86.999397,30.083535)">
      <g
         id="g1583">
        <path
           d="M 110.832,2.834 H 81.924 c -1.9,8.369 -16.186,12.416 -42.794,12.14 l -23.696,19.65 c 12.2,22.133 14.469,44.512 6.897,67.195 -7.664,22.654 0.797,39.484 25.382,50.459 21.888,9.84 38.135,22.377 48.68,37.645 10.515,-15.268 26.761,-27.805 48.742,-37.645 24.492,-10.975 32.953,-27.805 25.32,-50.459 -7.57,-22.683 -5.334,-45.062 6.867,-67.195 L 153.627,14.975 C 127.018,15.25 112.732,11.204 110.832,2.834 Z"
           fill="#262526"
           id="path848" />
        <path
           d="m 84.469,6.299 h 23.818 c 3.832,8.277 18.516,12.323 44.113,12.139 l 20.539,17.044 c -11.527,22.256 -13.488,44.695 -5.795,67.411 6.898,20.723 -0.98,36.08 -23.48,46.197 -20.693,9.318 -36.48,20.938 -47.271,34.945 C 85.572,170.027 69.785,158.408 49.093,149.09 26.592,138.973 18.744,123.615 25.611,102.893 33.305,80.178 31.343,57.738 19.817,35.482 l 20.6,-17.044 c 25.567,0.184 40.25,-3.862 44.052,-12.139 z"
           fill="#ffffff"
           id="path850" />
        <path
           d="M 105.223,11.51 H 87.595 C 81.863,19.541 66.781,23.588 42.257,23.649 l -15.91,13.243 c 10.484,22.317 11.925,44.849 4.23,67.686 v -0.062 c -5.702,17.812 1.165,31.115 20.661,39.852 0.153,0.062 0.276,0.123 0.46,0.246 18.883,8.492 33.751,18.883 44.694,31.268 10.914,-12.385 25.843,-22.775 44.726,-31.268 a 0.986,0.986 0 0 1 0.43,-0.246 c 19.465,-8.736 26.363,-22.039 20.691,-39.852 v 0.062 c -7.695,-22.837 -6.314,-45.369 4.23,-67.686 L 150.5,23.649 C 125.975,23.588 110.893,19.542 105.223,11.51 Z"
           fill="#262526"
           id="path852" />
        <path
           d="m 89.343,14.974 h 14.163 c 6.529,7.909 21.795,11.986 45.736,12.139 l 12.938,10.76 c -4.23,9.533 -6.867,19.067 -7.879,28.723 -1.318,12.936 0.184,25.964 4.629,39.085 0,0.061 0,0.184 0.061,0.246 0.645,2.023 1.043,3.924 1.35,5.824 1.654,12.844 -5.09,22.652 -20.201,29.428 h -0.031 c -0.246,0.123 -0.49,0.246 -0.705,0.338 -17.811,8.062 -32.156,17.811 -43.009,29.213 C 85.513,159.328 71.166,149.58 53.356,141.517 a 6.857,6.857 0 0 1 -0.675,-0.338 c -15.174,-6.775 -21.856,-16.584 -20.17,-29.428 0.214,-1.9 0.613,-3.801 1.257,-5.824 0.061,-0.062 0.061,-0.186 0.123,-0.246 C 38.275,92.56 39.777,79.532 38.428,66.596 37.477,56.94 34.872,47.406 30.642,37.873 L 43.547,27.113 C 67.486,26.96 82.752,22.883 89.343,14.974 Z"
           fill="#ffffff"
           id="path854" />
        <path
           d="M 154.301,66.597 H 38.425 c -0.707686,17.524997 -6.282096,31.134363 -5.917,45.155 H 160.34 C 159.5149,98.691686 156.39796,81.709548 154.301,66.597 Z M 118.158,46.058 v -2.82 h 5.916 v -3.464 h -9.9 v 16.185 h 3.984 v -6.59 h 5.09 V 46.058 Z M 70.919,39.774 H 66.535 L 61.63,55.96 h 4.17 l 0.613,-2.667 h 4.506 l 0.705,2.667 h 4.169 z m -0.797,9.932 h -2.881 l 1.441,-5.702 z m 10.699,6.253 v -4.506 h -3.863 v 4.506 z m 46.32,0 v -4.506 h -3.893 v 4.506 z m 5.425,78.232 h -3.863 v 4.506 h 3.863 z m -57.6,-0.123 c -0.031,-0.98 -0.215,-1.84 -0.613,-2.545 -0.459,-0.705 -1.165,-1.164 -2.023,-1.379 0.582,-0.369 1.042,-0.766 1.379,-1.166 0.521,-0.705 0.736,-1.502 0.736,-2.422 -0.03455,-0.45105 -0.08558,-0.90068 -0.153,-1.348 -0.184,-0.553 -0.521,-1.074 -0.92,-1.502 -0.582,-0.736 -1.41,-1.135 -2.514,-1.195 -0.092,-0.062 -0.215,-0.062 -0.398,0 h -7.45 v 16.186 h 6.867 c 0.307,0 0.951,-0.062 1.809,-0.184 0.705,-0.154 1.226,-0.338 1.563,-0.584 0.521,-0.398 0.981,-0.918 1.257,-1.594 0.306,-0.704 0.429,-1.47 0.46,-2.267 z m -4.844,-7.908 c 0.184,0.213 0.246,0.52 0.276,0.918 v 0.215 c 0,0.521 -0.092,0.889 -0.276,1.104 -0.276,0.307 -0.766,0.461 -1.379,0.521 h -1.747 v -3.127 h 1.839 c 0.582,-0.061 1.011,0.063 1.287,0.369 z m 0.797,7.326 c 0,0.521 -0.092,0.918 -0.337,1.225 -0.276,0.277 -0.797,0.461 -1.502,0.521 h -2.084 v -3.311 h 2.084 c 0.705,-0.061 1.226,0.123 1.502,0.461 0.246,0.307 0.337,0.706 0.337,1.104 z m 10.178,0.705 h -3.863 v 4.506 h 3.863 z m 41.415,-11.742 c -0.582,-0.184 -1.227,-0.244 -1.963,-0.244 -0.766,0 -1.41,0.061 -2.023,0.244 -1.164,0.338 -2.084,0.982 -2.85,1.902 -0.11911,0.11066 -0.21292,0.24574 -0.275,0.396 -0.982,1.473 -1.504,3.373 -1.441,5.855 -0.062,2.023 0.275,3.648 0.98,4.906 0.613,1.348 1.379,2.207 2.299,2.727 0.92,0.521 2.086,0.736 3.525,0.736 1.104,-0.061 2.084,-0.275 2.852,-0.674 0.736,-0.398 1.379,-0.982 1.9,-1.869 0.521,-0.859 0.859,-1.84 1.043,-3.006 l -3.465,-1.318 c -0.184,0.982 -0.459,1.779 -0.828,2.361 -0.398,0.521 -0.98,0.766 -1.717,0.766 -0.889,-0.061 -1.502,-0.367 -1.93,-0.98 -0.4,-0.705 -0.613,-1.961 -0.613,-3.77 0,-1.441 0.152,-2.484 0.582,-3.127 0,-0.062 0,-0.092 0.031,-0.154 0.459,-0.828 1.104,-1.227 1.992,-1.227 0.398,0 0.734,0.123 1.133,0.277 0.307,0.244 0.521,0.52 0.828,0.949 0.154,0.154 0.275,0.521 0.398,1.043 l 3.525,-0.951 c -0.307,-0.98 -0.582,-1.777 -0.98,-2.422 -0.338,-0.582 -0.766,-1.041 -1.164,-1.439 -0.52318,-0.473 -1.15477,-0.80992 -1.839,-0.981 z"
           fill="#262526"
           id="path856"
           sodipodi:nodetypes="cccccccccccccccccccccccccccccccccccccccccccccccccccccccsccccccsccccccsccccccsccccccsccccccccccccccsccsccccccc" />
        <path
           d="m 51.331,84.622 c -0.521,-0.736 -1.165,-1.318 -1.839,-1.655 -0.767,-0.46 -1.748,-0.705 -2.913,-0.705 h -5.947 v 16.186 h 5.947 c 0.705,0 1.502,-0.152 2.453,-0.459 0.613,-0.154 1.257,-0.584 1.839,-1.197 0.521,-0.705 0.981,-1.501 1.257,-2.452 0.307,-0.98 0.429,-2.299 0.49,-3.985 0,-1.104 -0.123,-2.176 -0.306,-3.188 -0.215,-0.981 -0.583,-1.779 -0.981,-2.545 z m -6.713,1.348 h 1.104 c 0.981,0 1.747,0.276 2.207,0.92 0.398,0.644 0.644,1.778 0.644,3.587 0,1.227 -0.123,2.146 -0.307,2.729 -0.184,0.613 -0.459,1.042 -0.797,1.195 -0.429,0.306 -0.981,0.398 -1.87,0.398 h -0.98 V 85.97 Z M 76.13,82.66 c -0.644,-0.276 -1.563,-0.398 -2.759,-0.398 h -6.774 v 16.186 h 4.107 v -6.591 h 0.276 c 0.429,0 0.705,0.123 0.98,0.398 0.245,0.184 0.46,0.583 0.767,1.349 l 2.146,4.843 h 4.568 l -1.931,-4.69 c -0.092,-0.276 -0.337,-0.551 -0.613,-0.919 -0.307,-0.46 -0.46,-0.736 -0.582,-0.858 -0.307,-0.275 -0.645,-0.46 -1.104,-0.644 0.644,-0.153 1.104,-0.398 1.379,-0.675 0.521,-0.429 0.981,-0.889 1.288,-1.502 a 6.51,6.51 0 0 0 0.46,-2.391 c 0,-1.104 -0.184,-1.962 -0.583,-2.606 A 3.82,3.82 0 0 0 76.13,82.66 Z m -2.207,3.31 c 0.307,0.276 0.429,0.675 0.429,1.196 a 4.336,4.336 0 0 1 -0.245,0.951 c -0.214,0.215 -0.46,0.398 -0.674,0.459 -0.521,0.153 -0.889,0.276 -1.042,0.276 h -1.686 v -3.28 h 1.717 c 0.704,0 1.225,0.092 1.501,0.398 z m -15.818,7.971 h -3.831 v 4.506 h 3.831 z m 33.69,-5.609 V 85.787 H 98.57 V 82.262 H 87.749 v 16.185 h 11.005 v -3.648 h -6.959 v -3.157 h 6.223 v -3.31 z m -6.866,-6.07 h -3.986 v 16.185 h 3.986 z m 28.202,4.046 h 4.047 v 12.139 h 4.047 V 86.308 h 4.045 v -4.046 h -12.139 z m -3.127,-3.065 c -0.857,-0.858 -2.115,-1.257 -3.801,-1.257 -1.318,0 -2.422,0.215 -3.188,0.675 -0.797,0.429 -1.381,1.042 -1.717,1.809 -0.43,0.644 -0.582,1.441 -0.582,2.299 -0.094,1.287 0.336,2.33 1.102,3.126 0.736,0.828 2.023,1.441 3.803,1.962 1.041,0.307 1.746,0.583 2.023,0.981 0.307,0.307 0.459,0.644 0.459,1.042 0,0.46 -0.152,0.89 -0.459,1.227 -0.338,0.276 -0.797,0.46 -1.35,0.46 -0.736,0 -1.379,-0.276 -1.777,-0.92 -0.277,-0.46 -0.461,-1.042 -0.521,-1.809 l -3.863,0.307 c 0.184,1.625 0.645,2.942 1.441,4.045 0.857,1.043 2.361,1.564 4.629,1.564 1.256,0 2.299,-0.246 3.127,-0.645 a 4.66,4.66 0 0 0 1.961,-1.961 c 0.461,-0.859 0.676,-1.87 0.676,-2.943 0,-0.889 -0.154,-1.687 -0.49,-2.392 -0.43,-0.735 -0.951,-1.318 -1.688,-1.716 -0.766,-0.521 -2.023,-1.042 -3.709,-1.564 -0.736,-0.122 -1.195,-0.306 -1.379,-0.521 -0.184,-0.184 -0.307,-0.398 -0.307,-0.705 -0.031,-0.398 0.061,-0.675 0.367,-0.92 0.154,-0.275 0.582,-0.398 1.074,-0.337 0.551,-0.061 1.012,0.092 1.287,0.521 0.336,0.276 0.551,0.797 0.705,1.502 l 3.74,-0.306 c -0.153,-1.624 -0.674,-2.758 -1.563,-3.524 z m 28.234,0.919 c -0.4,-0.674 -0.92,-1.195 -1.564,-1.502 -0.705,-0.276 -1.625,-0.398 -2.852,-0.398 h -6.682 v 16.186 h 4.107 v -6.591 h 0.275 c 0.398,0 0.705,0.123 0.982,0.398 0.244,0.184 0.459,0.583 0.766,1.349 l 2.115,4.843 h 4.537 l -1.871,-4.69 c -0.123,-0.276 -0.336,-0.551 -0.643,-0.919 -0.277,-0.46 -0.461,-0.736 -0.553,-0.858 -0.307,-0.275 -0.643,-0.46 -1.104,-0.644 0.613,-0.153 1.104,-0.398 1.379,-0.675 0.521,-0.429 0.982,-0.889 1.258,-1.502 0.307,-0.705 0.49,-1.502 0.49,-2.391 -0.058,-1.104 -0.241,-1.962 -0.64,-2.606 z m -3.404,3.004 c 0,0.368 -0.061,0.644 -0.184,0.951 -0.244,0.215 -0.459,0.398 -0.705,0.459 -0.521,0.153 -0.92,0.276 -1.104,0.276 h -1.594 v -3.28 h 1.717 c 0.705,0 1.227,0.092 1.502,0.398 0.245,0.277 0.368,0.675 0.368,1.196 z m 9.228,11.281 0.643,-2.605 h 4.508 l 0.703,2.605 h 4.17 l -4.873,-16.186 h -4.385 l -4.904,16.186 z m 2.913,-11.894 1.439,5.702 h -2.912 z"
           fill="#ffffff"
           id="path858" />
      </g>
    </g>
  </g>
</svg>
