<?xml version="1.0" encoding="UTF-8" standalone="no"?>
<!-- Generator: Adobe Illustrator 16.0.0, SVG Export Plug-In . SVG Version: 6.00 Build 0)  -->

<svg
   xmlns:dc="http://purl.org/dc/elements/1.1/"
   xmlns:cc="http://creativecommons.org/ns#"
   xmlns:rdf="http://www.w3.org/1999/02/22-rdf-syntax-ns#"
   xmlns:svg="http://www.w3.org/2000/svg"
   xmlns="http://www.w3.org/2000/svg"
   xmlns:sodipodi="http://sodipodi.sourceforge.net/DTD/sodipodi-0.dtd"
   xmlns:inkscape="http://www.inkscape.org/namespaces/inkscape"
   version="1.1"
   id="Capa_1"
   x="0px"
   y="0px"
   width="400"
   height="465"
   viewBox="0 0 400 465"
   enable-background="new 0 0 612 707"
   xml:space="preserve"
   inkscape:version="0.48.1 "
   sodipodi:docname="Boca_Juniors_2012.svg"><metadata
   id="metadata3141"><rdf:RDF><cc:Work
       rdf:about=""><dc:format>image/svg+xml</dc:format><dc:type
         rdf:resource="http://purl.org/dc/dcmitype/StillImage" /></cc:Work></rdf:RDF></metadata><defs
   id="defs3139">
	
	
	
	
	
	
	
	
	
	
	
	
	
	
	
	
	
	
	
	
	
	
	
	
	
	
	
	
	
	
	
	
	
	
	
</defs><sodipodi:namedview
   pagecolor="#ffffff"
   bordercolor="#666666"
   borderopacity="1"
   objecttolerance="10"
   gridtolerance="10"
   guidetolerance="10"
   inkscape:pageopacity="0"
   inkscape:pageshadow="2"
   inkscape:window-width="1366"
   inkscape:window-height="706"
   id="namedview3137"
   showgrid="false"
   inkscape:zoom="0.4951808"
   inkscape:cx="145.21411"
   inkscape:cy="324.79186"
   inkscape:window-x="-8"
   inkscape:window-y="-8"
   inkscape:window-maximized="1"
   inkscape:current-layer="Capa_1"
   showguides="true"
   inkscape:guide-bbox="true" />

<g
   id="g5049"
   transform="matrix(0.64319797,0,0,0.64319797,-0.942167,5.1790014)"><path
     clip-rule="evenodd"
     d="m 19.508047,127.112 v 19.261 c 0.261062,0.419 0.609473,23.292 0.641861,25.669 0.06183,4.375 0.639898,8.579 0.622232,12.528 -0.02257,4.839 0.648731,8.774 0.630084,12.841 -0.03435,7.396 1.039344,17.615 1.877493,24.731 0.915682,7.773 1.383829,16.33 2.727419,23.866 1.35733,7.608 1.502583,15.989 3.270155,22.992 1.75972,6.972 1.956989,15.594 3.90809,22.664 0.949051,3.436 1.191467,7.658 2.069855,11.053 0.927459,3.582 1.404439,7.35 2.401581,11.036 0.756689,2.798 1.632133,8.298 2.556648,10.558 0.446555,1.09 2.436914,9.466 2.642034,10.792 0.22475,1.443 2.094391,8.596 2.698958,10.413 1.07762,3.239 2.224922,6.744 2.96002,10.146 1.266056,5.862 4.464566,14.07 6.351873,20.174 4.074935,13.19 9.453221,26.213 14.393785,38.626 2.542908,6.392 5.486244,12.287 7.878011,18.299 2.186646,5.495 5.550037,13.129 8.395229,18.093 1.282741,2.236 3.412463,6.375 4.381144,8.699 1.285685,3.085 3.236786,5.888 4.549951,8.849 1.109026,2.503 3.234823,5.91 4.667724,8.406 1.744016,3.038 3.104296,5.571 4.894436,8.497 3.29175,5.382 6.63944,11.048 9.7133,16.428 3.18379,5.567 7.13408,10.596 10.45527,15.992 6.55601,10.647 14.64307,20.89 22.07944,30.799 3.26917,4.355 8.04681,10.793 11.59962,14.507 1.94031,2.029 3.88258,4.938 5.87882,7.174 1.93933,2.17 4.52934,4.878 6.19681,7.169 1.63704,2.251 4.29085,4.762 6.2606,6.785 2.05415,2.108 4.41746,4.78 6.29986,7.065 3.89729,4.729 8.777,8.91 12.97658,13.424 4.35072,4.677 9.04494,8.329 13.33383,12.74 2.30246,2.367 4.18977,4.18 6.6149,6.424 2.12482,1.965 4.84635,4.718 6.95546,6.397 9.79378,7.801 18.52172,16.748 28.74242,24.01 4.7747,3.393 9.69466,7.905 14.54198,11.51 2.51053,1.868 4.99749,3.709 7.57377,5.444 2.55469,1.723 5.12017,4.107 7.70822,5.632 2.52917,1.489 5.23696,3.698 7.67093,5.347 2.62142,1.775 5.22518,3.59 7.93395,5.399 4.50088,3.008 11.97061,7.353 15.69812,10.653 h 0.63205 c 3.57734,-3.168 11.13442,-7.698 15.5087,-10.524 4.85027,-3.133 11.03137,-7.258 15.56464,-10.788 4.89149,-3.81 10.28351,-7.536 15.25745,-11.103 5.05539,-3.624 9.79868,-7.852 14.74612,-11.622 5.01319,-3.819 9.412,-7.909 14.36434,-11.69 4.1299,-3.154 10.5593,-8.6 14.13763,-12.243 4.36348,-4.441 9.27067,-8.169 13.70383,-12.685 4.41746,-4.5 8.93797,-8.465 13.39272,-13.002 34.47206,-35.116 66.22849,-74.842 91.52311,-119.28 3.24366,-5.696 6.07904,-11.112 9.34036,-16.808 2.98848,-5.218 6.63158,-12.037 8.99979,-17.478 1.31219,-3.012 2.76766,-5.737 4.18879,-8.896 1.35929,-3.027 2.71073,-6.147 4.20055,-9.203 2.94236,-6.039 5.13784,-12.602 8.03603,-18.459 2.53604,-5.123 5.1977,-13.195 7.28522,-18.901 2.29853,-6.287 4.53719,-13.07 6.99766,-19.516 2.25044,-5.893 4.59706,-13.974 6.32832,-20.198 1.97956,-7.11 3.90318,-13.521 5.66879,-20.869 3.40167,-14.139 7.15567,-27.913 9.7663,-43.02 0.58199,-3.379 1.83038,-8.038 2.07771,-11.045 0.19138,-2.34 1.18361,-9.124 1.75775,-11.69 1.69887,-7.577 2.03845,-15.267 3.36634,-23.216 2.4428,-14.64 3.57342,-32.243 4.65104,-48.229 0.53194,-7.859 1.24643,-17.339 1.25231,-25.369 9.9e-4,-2.3 0.40534,-25.622 0.63794,-25.995 v -19.261 c -1.37009,-0.374 -36.08849,-26.631 -40.10749,-29.768 -3.1936,-2.493 -6.78763,-5.186 -9.99203,-7.477 -3.04246,-2.174 -7.02906,-5.595 -10.08232,-7.384 -1.80683,-1.058 -8.07823,-5.927 -9.94296,-7.528 -2.46734,-2.116 -7.30289,-5.685 -9.97927,-7.49 -8.36873,-5.648 -78.69669,-59.45 -79.98139,-59.45 -0.27186,0 -24.2543,18.306 -27.60788,20.351 -2.22885,1.358 -4.96706,3.255 -7.24891,4.815 -2.51052,1.715 -4.81298,3.078 -7.31172,4.749 -2.19941,1.471 -5.23892,3.123 -7.72098,4.333 -2.37607,1.16 -5.18593,3.101 -7.5934,4.143 -5.60794,2.428 -10.74479,5.267 -16.56767,7.521 -5.24383,2.029 -12.05894,4.551 -17.7768,5.965 -9.88996,2.444 -29.22922,7.1 -41.23614,5.642 -2.35448,-0.286 -7.97321,0.312 -11.24337,-0.079 -3.50472,-0.419 -7.18708,-0.708 -10.59856,-1.402 -0.92942,-0.189 -4.70109,-0.787 -5.182,-0.821 -2.57431,-0.181 -3.1141,-0.746 -5.04754,-0.958 -2.57628,-0.282 -7.00158,-1.541 -9.45126,-2.25 -12.57714,-3.639 -23.34647,-8.127 -34.1845,-13.649 -11.10302,-5.658 -20.03509,-11.174 -29.9123,-18.003 -4.79334,-3.315 -8.9782,-6.736 -13.60372,-10.218 -4.40666,-3.317 -9.37176,-6.924 -13.36622,-10.46 h -0.63008 L 19.508047,127.112 z"
     id="path3067"
     inkscape:connector-curvature="0"
     style="fill:#fcb000;fill-opacity:1;fill-rule:evenodd" /><path
     clip-rule="evenodd"
     d="m 46.294462,141.557 v 10.915 c 0,6.57 0.315042,12.341 0.315042,18.619 0,6.062 0.967698,12.096 0.946107,18.298 -0.02356,6.448 1.301388,12.184 1.264093,17.975 -0.02159,3.303 0.936293,14.739 1.54773,17.684 0.381779,1.837 0.914701,6.695 0.981439,8.631 0.122679,3.572 0.769448,5.584 0.933348,8.679 0.260081,4.883 1.545766,11.852 2.401581,16.814 0.978495,5.674 1.682187,11.074 2.721531,16.489 0.725283,3.778 2.754899,12.845 2.709753,16.493 l 0.67523,0.924 c 0,4.637 3.808965,17.72 4.916028,22.92 0.813613,3.818 1.913806,7.413 2.671477,11.083 0.616344,2.982 2.811823,8.297 2.765695,11.3 l 0.676212,0.924 c 0,4.579 15.108272,48.104 17.541259,53.396 1.536934,3.346 3.850185,9.122 5.012209,12.551 1.513379,4.464 3.540051,8.332 5.337065,12.539 3.582249,8.39 7.280319,16.492 11.398429,24.342 8.28728,15.795 15.99255,30.798 25.3702,45.422 9.56903,14.922 18.79358,27.877 29.06336,41.98 10.01951,13.762 21.23245,25.761 32.24321,38.421 5.49999,6.326 11.3209,12.163 17.18009,18.132 2.85992,2.912 6.01917,6.047 8.98115,8.828 2.56843,2.41 6.70323,6.727 9.21866,8.587 1.94815,1.44 7.37355,6.381 9.2216,8.261 2.3584,2.4 6.78665,6.245 9.4964,8.304 6.67575,5.068 12.87648,10.709 19.64056,15.946 13.56152,10.499 26.79427,20.04 41.05359,29.767 30.2823,-20.657 55.35807,-40.741 82.16215,-64.934 6.38328,-5.76 12.41128,-11.988 18.44124,-18.131 3.12294,-3.18 6.03683,-6.106 9.14505,-9.304 2.41041,-2.482 6.81511,-7.072 8.7986,-9.656 5.18102,-6.755 11.67814,-13.012 17.01717,-19.903 5.12802,-6.621 11.58393,-13.855 16.14369,-20.792 4.8012,-7.306 10.22562,-14.033 15.12005,-21.514 4.99847,-7.64 9.52094,-14.807 14.30644,-22.663 4.20939,-6.911 10.03521,-16.267 13.34953,-23.642 1.57227,-3.5 4.47831,-8.359 6.41959,-12.079 2.02668,-3.879 4.33502,-8.484 6.01328,-12.493 1.85001,-4.423 3.99151,-8.356 5.83956,-12.671 1.80585,-4.217 3.44878,-8.815 5.41755,-13.1 3.51355,-7.646 7.81225,-18.49 10.29431,-26.752 2.78925,-9.288 6.2979,-18.203 9.09303,-27.975 1.23171,-4.305 2.7235,-10.106 4.2408,-14.299 0.64284,-1.779 3.68236,-13.274 3.63721,-14.906 l 0.51526,-0.963 2.54487,-10.585 3.24268,-16.702 0.67523,-0.924 c 0,-2.084 0.98242,-6.632 1.45056,-8.796 0.71351,-3.299 0.94218,-5.167 1.45253,-8.793 0.75571,-5.346 2.23376,-12.04 3.02185,-17.467 0.84797,-5.844 1.84609,-12.591 2.26615,-18.237 0.11482,-1.556 0.72037,-7.191 1.07369,-9.178 0.55451,-3.11 0.40828,-6.474 0.94218,-9.634 1.00598,-5.923 0.54077,-13.1 1.57914,-18.937 0.65167,-3.653 1.16006,-15.502 1.1365,-19.388 -0.0363,-6.145 0.62911,-12.812 0.62911,-19.905 -9.9e-4,-6.499 0.31504,-13.552 0.31504,-20.545 -3.94244,-2.124 -12.59579,-9.168 -16.61576,-12.287 -5.19869,-4.033 -11.17173,-8.747 -16.53529,-12.369 -5.3194,-3.592 -11.41512,-8.334 -16.55393,-12.348 -5.55789,-4.34 -11.14326,-8.179 -16.70213,-12.521 -5.51569,-4.31 -66.51016,-49.67 -66.57886,-49.67 -0.53488,0 -11.75175,8.417 -13.36033,9.502 -4.68245,3.157 -9.02924,5.974 -13.86773,8.987 -4.83261,3.009 -9.50033,5.501 -14.51352,8.328 -5.17808,2.92 -10.36105,4.81 -15.66671,7.476 -5.49999,2.762 -10.55145,4.028 -16.43322,6.373 -5.78754,2.306 -11.40334,3.377 -17.49611,5.29 -5.83466,1.833 -12.52415,2.415 -19.15082,3.605 -6.6257,1.19 -13.91877,1.481 -21.54946,1.481 h -4.72661 c -14.86389,0 -27.61966,-2.195 -39.63836,-5.206 -11.00978,-2.758 -24.35244,-6.887 -33.61723,-11.66 -2.6175,-1.349 -4.9229,-2.069 -7.58161,-3.512 -2.53899,-1.379 -5.03479,-2.489 -7.6091,-3.805 -5.01515,-2.566 -9.61123,-5.444 -14.27601,-8.249 -4.68441,-2.816 -9.07831,-5.848 -13.62434,-8.914 -1.42309,-0.959 -13.02468,-9.695 -13.17189,-9.695 -0.58298,0 -61.14856,45.181 -66.8939,49.67 -6.24196,4.879 -66.404168,48.862 -66.404168,50.168 z"
     id="path3069"
     inkscape:connector-curvature="0"
     style="fill:#00458a;fill-opacity:1;fill-rule:evenodd" /><path
     d="M 199.68308,298.51967 H 168.2167 v -14.56452 l -3.57312,-3.71004 h -16.76406 l -3.71003,3.71004 v 55.64871 l 3.71003,3.57313 h 16.76406 l 3.57312,-3.57313 V 325.8635 h 31.46638 v 24.87136 l -18.27545,18.27456 H 130.97945 L 112.704,350.73486 v -77.90981 l 18.27545,-18.41326 h 50.42818 l 18.27545,18.41326 v 25.69462 l 0,0 z m 96.32218,-44.10788 v 25.83332 h -5.77176 l 25.14697,62.93277 h 6.86885 v 25.83332 h -43.96918 v -25.83332 h 3.71003 l -1.64831,-5.08452 h -30.36751 l -1.78611,5.08452 h 3.71003 v 25.83332 h -43.83406 v -25.83332 h 6.87064 l 25.14697,-62.93277 h -4.9476 v -25.83332 h 60.87104 l 0,0 z m -38.19921,61.69609 h 14.56542 l -7.28227,-18.13765 -7.28315,18.13765 0,0 z m 159.39275,1.09887 v 33.52811 l -18.27545,18.27456 h -70.90317 v -25.83333 h 6.87063 v -62.93277 h -6.87063 V 254.41 h 70.90317 l 18.27545,18.41326 V 302.091 l -7.55698,7.55788 7.55698,7.55787 0,0 z m -31.46728,9.07016 -3.70914,-3.57312 H 366.3572 v 20.4732 h 15.66518 l 3.70914,-3.57313 v -13.32695 l 0,0 z m 0,-42.32176 -3.70914,-3.71004 H 366.3572 v 16.62625 h 15.66518 l 3.70914,-3.71003 v -9.20618 l 0,0 z m 117.4835,-3.84874 v 70.49064 l -18.27634,18.41326 h -41.90745 l -18.27635,-18.27456 v -27.75724 h 31.46728 v 16.48934 l 3.70914,3.71003 h 8.1082 l 3.71004,-3.57312 v -59.49745 h -9.75562 v -25.69463 h 48.09353 v 25.69463 h -6.87243 z"
     id="path3071"
     inkscape:connector-curvature="0"
     style="fill:#fcb000;fill-opacity:1" /><polygon
     clip-rule="evenodd"
     points="131.151,132.617 116.061,121.053 135.066,120.567 141.401,102.642 147.736,120.567 166.742,121.053 151.651,132.617 157.062,150.843 141.401,140.065 125.74,150.843 "
     id="polygon3073-0"
     style="fill:#fcb000;fill-opacity:1;fill-rule:evenodd"
     transform="matrix(0.75805781,0,0,0.75805781,65.66899,-13.168964)" /><polygon
     clip-rule="evenodd"
     points="125.74,150.843 131.151,132.617 116.061,121.053 135.066,120.567 141.401,102.642 147.736,120.567 166.742,121.053 151.651,132.617 157.062,150.843 141.401,140.065 "
     id="polygon3073-0-1-7"
     style="fill:#fcb000;fill-opacity:1;fill-rule:evenodd"
     transform="matrix(0.75805781,0,0,0.75805781,89.21702,28.18295)" /><polygon
     clip-rule="evenodd"
     points="166.742,121.053 151.651,132.617 157.062,150.843 141.401,140.065 125.74,150.843 131.151,132.617 116.061,121.053 135.066,120.567 141.401,102.642 147.736,120.567 "
     id="polygon3073-0-1-7-3"
     style="fill:#fcb000;fill-opacity:1;fill-rule:evenodd"
     transform="matrix(0.75805781,0,0,0.75805781,165.14958,28.182946)" /><polygon
     clip-rule="evenodd"
     points="135.066,120.567 141.401,102.642 147.736,120.567 166.742,121.053 151.651,132.617 157.062,150.843 141.401,140.065 125.74,150.843 131.151,132.617 116.061,121.053 "
     id="polygon3073-0-1-7-3-6"
     style="fill:#fcb000;fill-opacity:1;fill-rule:evenodd"
     transform="matrix(0.75805781,0,0,0.75805781,239.08216,28.182946)" /><polygon
     clip-rule="evenodd"
     points="116.061,121.053 135.066,120.567 141.401,102.642 147.736,120.567 166.742,121.053 151.651,132.617 157.062,150.843 141.401,140.065 125.74,150.843 131.151,132.617 "
     id="polygon3073-0-1-7-3-6-3"
     style="fill:#fcb000;fill-opacity:1;fill-rule:evenodd"
     transform="matrix(0.75805781,0,0,0.75805781,316.24347,28.182946)" /><polygon
     clip-rule="evenodd"
     points="157.062,150.843 141.401,140.065 125.74,150.843 131.151,132.617 116.061,121.053 135.066,120.567 141.401,102.642 147.736,120.567 166.742,121.053 151.651,132.617 "
     id="polygon3073-0-1-7-3-6-3-1"
     style="fill:#fcb000;fill-opacity:1;fill-rule:evenodd"
     transform="matrix(0.75805781,0,0,0.75805781,390.73028,28.182946)" /><polygon
     clip-rule="evenodd"
     points="141.401,102.642 147.736,120.567 166.742,121.053 151.651,132.617 157.062,150.843 141.401,140.065 125.74,150.843 131.151,132.617 116.061,121.053 135.066,120.567 "
     id="polygon3073-0-1-7-3-6-3-1-1"
     style="fill:#fcb000;fill-opacity:1;fill-rule:evenodd"
     transform="matrix(0.75805781,0,0,0.75805781,14.39295,28.162194)" /><polygon
     clip-rule="evenodd"
     points="125.74,150.843 131.151,132.617 116.061,121.053 135.066,120.567 141.401,102.642 147.736,120.567 166.742,121.053 151.651,132.617 157.062,150.843 141.401,140.065 "
     id="polygon3073-0-1-7-3-6-3-1-1-6"
     style="fill:#fcb000;fill-opacity:1;fill-rule:evenodd"
     transform="matrix(0.75805781,0,0,0.75805781,-26.62172,74.740146)" /><polygon
     clip-rule="evenodd"
     points="166.742,121.053 151.651,132.617 157.062,150.843 141.401,140.065 125.74,150.843 131.151,132.617 116.061,121.053 135.066,120.567 141.401,102.642 147.736,120.567 "
     id="polygon3073-0-1-7-3-6-3-1-1-6-1"
     style="fill:#fcb000;fill-opacity:1;fill-rule:evenodd"
     transform="matrix(0.75805781,0,0,0.75805781,38.40519,74.165137)" /><polygon
     clip-rule="evenodd"
     points="116.061,121.053 135.066,120.567 141.401,102.642 147.736,120.567 166.742,121.053 151.651,132.617 157.062,150.843 141.401,140.065 125.74,150.843 131.151,132.617 "
     id="polygon3073-0-1-7-3-6-3-1-1-6-1-2"
     style="fill:#fcb000;fill-opacity:1;fill-rule:evenodd"
     transform="matrix(0.75805781,0,0,0.75805781,103.62758,74.740146)" /><polygon
     clip-rule="evenodd"
     points="157.062,150.843 141.401,140.065 125.74,150.843 131.151,132.617 116.061,121.053 135.066,120.567 141.401,102.642 147.736,120.567 166.742,121.053 151.651,132.617 "
     id="polygon3073-0-1-7-3-6-3-1-1-6-1-2-4"
     style="fill:#fcb000;fill-opacity:1;fill-rule:evenodd"
     transform="matrix(0.75805781,0,0,0.75805781,169.58361,74.740146)" /><polygon
     clip-rule="evenodd"
     points="141.401,102.642 147.736,120.567 166.742,121.053 151.651,132.617 157.062,150.843 141.401,140.065 125.74,150.843 131.151,132.617 116.061,121.053 135.066,120.567 "
     id="polygon3073-0-1-7-3-6-3-1-1-6-1-2-4-3"
     style="fill:#fcb000;fill-opacity:1;fill-rule:evenodd"
     transform="matrix(0.75805781,0,0,0.75805781,234.98538,74.740146)" /><polygon
     clip-rule="evenodd"
     points="125.74,150.843 131.151,132.617 116.061,121.053 135.066,120.567 141.401,102.642 147.736,120.567 166.742,121.053 151.651,132.617 157.062,150.843 141.401,140.065 "
     id="polygon3073-0-1-7-3-6-3-1-1-6-1-2-4-3-9"
     style="fill:#fcb000;fill-opacity:1;fill-rule:evenodd"
     transform="matrix(0.75805781,0,0,0.75805781,299.8329,74.740146)" /><polygon
     clip-rule="evenodd"
     points="166.742,121.053 151.651,132.617 157.062,150.843 141.401,140.065 125.74,150.843 131.151,132.617 116.061,121.053 135.066,120.567 141.401,102.642 147.736,120.567 "
     id="polygon3073-0-1-7-3-6-3-1-1-6-1-2-4-3-9-4"
     style="fill:#fcb000;fill-opacity:1;fill-rule:evenodd"
     transform="matrix(0.75805781,0,0,0.75805781,365.78893,74.740146)" /><polygon
     clip-rule="evenodd"
     points="116.061,121.053 135.066,120.567 141.401,102.642 147.736,120.567 166.742,121.053 151.651,132.617 157.062,150.843 141.401,140.065 125.74,150.843 131.151,132.617 "
     id="polygon3073-0-1-7-3-6-3-1-1-6-1-2-4-3-9-4-3"
     style="fill:#fcb000;fill-opacity:1;fill-rule:evenodd"
     transform="matrix(0.75805781,0,0,0.75805781,432.29921,74.740146)" /><polygon
     clip-rule="evenodd"
     points="151.651,132.617 157.062,150.843 141.401,140.065 125.74,150.843 131.151,132.617 116.061,121.053 135.066,120.567 141.401,102.642 147.736,120.567 166.742,121.053 "
     id="polygon3073-0-1-7-3-6-3-1-1-6-6"
     style="fill:#fcb000;fill-opacity:1;fill-rule:evenodd"
     transform="matrix(0.75805781,0,0,0.75805781,-18.68818,123.51435)" /><polygon
     clip-rule="evenodd"
     points="135.066,120.567 141.401,102.642 147.736,120.567 166.742,121.053 151.651,132.617 157.062,150.843 141.401,140.065 125.74,150.843 131.151,132.617 116.061,121.053 "
     id="polygon3073-0-1-7-3-6-3-1-1-6-6-0"
     style="fill:#fcb000;fill-opacity:1;fill-rule:evenodd"
     transform="matrix(0.75805781,0,0,0.75805781,45.47484,123.51435)" /><polygon
     clip-rule="evenodd"
     points="141.401,140.065 125.74,150.843 131.151,132.617 116.061,121.053 135.066,120.567 141.401,102.642 147.736,120.567 166.742,121.053 151.651,132.617 157.062,150.843 "
     id="polygon3073-0-1-7-3-6-3-1-1-6-6-0-8"
     style="fill:#fcb000;fill-opacity:1;fill-rule:evenodd"
     transform="matrix(0.75805781,0,0,0.75805781,105.84459,123.51435)" /><polygon
     clip-rule="evenodd"
     points="157.062,150.843 141.401,140.065 125.74,150.843 131.151,132.617 116.061,121.053 135.066,120.567 141.401,102.642 147.736,120.567 166.742,121.053 151.651,132.617 "
     id="polygon3073-0-1-7-3-6-3-1-1-6-6-0-8-4"
     style="fill:#fcb000;fill-opacity:1;fill-rule:evenodd"
     transform="matrix(0.75805781,0,0,0.75805781,170.00236,123.51435)" /><polygon
     clip-rule="evenodd"
     points="166.742,121.053 151.651,132.617 157.062,150.843 141.401,140.065 125.74,150.843 131.151,132.617 116.061,121.053 135.066,120.567 141.401,102.642 147.736,120.567 "
     id="polygon3073-0-1-7-3-6-3-1-1-6-6-0-8-4-0"
     style="fill:#fcb000;fill-opacity:1;fill-rule:evenodd"
     transform="matrix(0.75805781,0,0,0.75805781,234.43113,123.51435)" /><polygon
     clip-rule="evenodd"
     points="116.061,121.053 135.066,120.567 141.401,102.642 147.736,120.567 166.742,121.053 151.651,132.617 157.062,150.843 141.401,140.065 125.74,150.843 131.151,132.617 "
     id="polygon3073-0-1-7-3-6-3-1-1-6-6-0-8-4-0-7"
     style="fill:#fcb000;fill-opacity:1;fill-rule:evenodd"
     transform="matrix(0.75805781,0,0,0.75805781,295.95313,123.51435)" /><polygon
     clip-rule="evenodd"
     points="157.062,150.843 141.401,140.065 125.74,150.843 131.151,132.617 116.061,121.053 135.066,120.567 141.401,102.642 147.736,120.567 166.742,121.053 151.651,132.617 "
     id="polygon3073-0-1-7-3-6-3-1-1-6-6-0-8-4-0-7-6"
     style="fill:#fcb000;fill-opacity:1;fill-rule:evenodd"
     transform="matrix(0.75805781,0,0,0.75805781,360.80066,123.51435)" /><polygon
     clip-rule="evenodd"
     points="166.742,121.053 151.651,132.617 157.062,150.843 141.401,140.065 125.74,150.843 131.151,132.617 116.061,121.053 135.066,120.567 141.401,102.642 147.736,120.567 "
     id="polygon3073-0-1-7-3-6-3-1-1-6-6-0-8-4-0-7-6-2"
     style="fill:#fcb000;fill-opacity:1;fill-rule:evenodd"
     transform="matrix(0.75805781,0,0,0.75805781,422.87692,123.51435)" /><polygon
     clip-rule="evenodd"
     points="151.651,132.617 157.062,150.843 141.401,140.065 125.74,150.843 131.151,132.617 116.061,121.053 135.066,120.567 141.401,102.642 147.736,120.567 166.742,121.053 "
     id="polygon3073-0-9"
     style="fill:#fcb000;fill-opacity:1;fill-rule:evenodd"
     transform="matrix(0.75805781,0,0,0.75805781,337.30505,-13.168964)" /><polygon
     clip-rule="evenodd"
     points="125.74,150.843 131.151,132.617 116.061,121.053 135.066,120.567 141.401,102.642 147.736,120.567 166.742,121.053 151.651,132.617 157.062,150.843 141.401,140.065 "
     id="polygon3073-0-1-7-3-6-3-1-1-6-6-3"
     style="fill:#fcb000;fill-opacity:1;fill-rule:evenodd"
     transform="matrix(0.75805781,0,0,0.75805781,21.73095,303.30912)" /><polygon
     clip-rule="evenodd"
     points="166.742,121.053 151.651,132.617 157.062,150.843 141.401,140.065 125.74,150.843 131.151,132.617 116.061,121.053 135.066,120.567 141.401,102.642 147.736,120.567 "
     id="polygon3073-0-1-7-3-6-3-1-1-6-6-3-3"
     style="fill:#fcb000;fill-opacity:1;fill-rule:evenodd"
     transform="matrix(0.75805781,0,0,0.75805781,82.90323,303.30912)" /><polygon
     clip-rule="evenodd"
     points="116.061,121.053 135.066,120.567 141.401,102.642 147.736,120.567 166.742,121.053 151.651,132.617 157.062,150.843 141.401,140.065 125.74,150.843 131.151,132.617 "
     id="polygon3073-0-1-7-3-6-3-1-1-6-6-3-3-1"
     style="fill:#fcb000;fill-opacity:1;fill-rule:evenodd"
     transform="matrix(0.75805781,0,0,0.75805781,143.31673,303.30912)" /><polygon
     clip-rule="evenodd"
     points="157.062,150.843 141.401,140.065 125.74,150.843 131.151,132.617 116.061,121.053 135.066,120.567 141.401,102.642 147.736,120.567 166.742,121.053 151.651,132.617 "
     id="polygon3073-0-1-7-3-6-3-1-1-6-6-3-3-1-1"
     style="fill:#fcb000;fill-opacity:1;fill-rule:evenodd"
     transform="matrix(0.75805781,0,0,0.75805781,203.17599,303.30912)" /><polygon
     clip-rule="evenodd"
     points="141.401,102.642 147.736,120.567 166.742,121.053 151.651,132.617 157.062,150.843 141.401,140.065 125.74,150.843 131.151,132.617 116.061,121.053 135.066,120.567 "
     id="polygon3073-0-1-7-3-6-3-1-1-6-6-3-3-1-1-0"
     style="fill:#fcb000;fill-opacity:1;fill-rule:evenodd"
     transform="matrix(0.75805781,0,0,0.75805781,266.36076,303.30912)" /><polygon
     clip-rule="evenodd"
     points="125.74,150.843 131.151,132.617 116.061,121.053 135.066,120.567 141.401,102.642 147.736,120.567 166.742,121.053 151.651,132.617 157.062,150.843 141.401,140.065 "
     id="polygon3073-0-1-7-3-6-3-1-1-6-6-3-3-1-1-0-9"
     style="fill:#fcb000;fill-opacity:1;fill-rule:evenodd"
     transform="matrix(0.75805781,0,0,0.75805781,325.1115,303.30912)" /><polygon
     clip-rule="evenodd"
     points="166.742,121.053 151.651,132.617 157.062,150.843 141.401,140.065 125.74,150.843 131.151,132.617 116.061,121.053 135.066,120.567 141.401,102.642 147.736,120.567 "
     id="polygon3073-0-1-7-3-6-3-1-1-6-6-3-3-1-1-0-9-8"
     style="fill:#fcb000;fill-opacity:1;fill-rule:evenodd"
     transform="matrix(0.75805781,0,0,0.75805781,387.18776,303.30912)" /><polygon
     clip-rule="evenodd"
     points="166.742,121.053 151.651,132.617 157.062,150.843 141.401,140.065 125.74,150.843 131.151,132.617 116.061,121.053 135.066,120.567 141.401,102.642 147.736,120.567 "
     id="polygon3073-0-1-7-3-6-3-1-1-6-6-3-3-1-1-0-9-8-1"
     style="fill:#fcb000;fill-opacity:1;fill-rule:evenodd"
     transform="matrix(0.75805781,0,0,0.75805781,41.47484,348.75781)" /><polygon
     clip-rule="evenodd"
     points="116.061,121.053 135.066,120.567 141.401,102.642 147.736,120.567 166.742,121.053 151.651,132.617 157.062,150.843 141.401,140.065 125.74,150.843 131.151,132.617 "
     id="polygon3073-0-1-7-3-6-3-1-1-6-6-3-3-1-1-0-9-8-1-3"
     style="fill:#fcb000;fill-opacity:1;fill-rule:evenodd"
     transform="matrix(0.75805781,0,0,0.75805781,106.18184,348.75781)" /><polygon
     clip-rule="evenodd"
     points="157.062,150.843 141.401,140.065 125.74,150.843 131.151,132.617 116.061,121.053 135.066,120.567 141.401,102.642 147.736,120.567 166.742,121.053 151.651,132.617 "
     id="polygon3073-0-1-7-3-6-3-1-1-6-6-3-3-1-1-0-9-8-1-3-8"
     style="fill:#fcb000;fill-opacity:1;fill-rule:evenodd"
     transform="matrix(0.75805781,0,0,0.75805781,171.02935,348.75781)" /><polygon
     clip-rule="evenodd"
     points="157.062,150.843 141.401,140.065 125.74,150.843 131.151,132.617 116.061,121.053 135.066,120.567 141.401,102.642 147.736,120.567 166.742,121.053 151.651,132.617 "
     id="polygon3073-0-1-7-3-6-3-1-1-6-6-3-3-1-1-0-9-8-1-3-8-9"
     style="fill:#fcb000;fill-opacity:1;fill-rule:evenodd"
     transform="matrix(0.75805781,0,0,0.75805781,236.98538,348.75781)" /><polygon
     clip-rule="evenodd"
     points="151.651,132.617 157.062,150.843 141.401,140.065 125.74,150.843 131.151,132.617 116.061,121.053 135.066,120.567 141.401,102.642 147.736,120.567 166.742,121.053 "
     id="polygon3073-0-1-7-3-6-3-1-1-6-6-3-3-1-1-0-9-8-1-3-8-9-7"
     style="fill:#fcb000;fill-opacity:1;fill-rule:evenodd"
     transform="matrix(0.75805781,0,0,0.75805781,299.61589,348.75781)" /><polygon
     clip-rule="evenodd"
     points="166.742,121.053 151.651,132.617 157.062,150.843 141.401,140.065 125.74,150.843 131.151,132.617 116.061,121.053 135.066,120.567 141.401,102.642 147.736,120.567 "
     id="polygon3073-0-1-7-3-6-3-1-1-6-6-3-3-1-1-0-9-8-1-3-8-9-7-5"
     style="fill:#fcb000;fill-opacity:1;fill-rule:evenodd"
     transform="matrix(0.75805781,0,0,0.75805781,367.01767,348.75781)" /><polygon
     clip-rule="evenodd"
     points="157.062,150.843 141.401,140.065 125.74,150.843 131.151,132.617 116.061,121.053 135.066,120.567 141.401,102.642 147.736,120.567 166.742,121.053 151.651,132.617 "
     id="polygon3073-0-1-7-3-6-3-1-1-6-6-3-3-1-1-0-9-8-1-8"
     style="fill:#fcb000;fill-opacity:1;fill-rule:evenodd"
     transform="matrix(0.75805781,0,0,0.75805781,68.00869,393.65225)" /><polygon
     clip-rule="evenodd"
     points="147.736,120.567 166.742,121.053 151.651,132.617 157.062,150.843 141.401,140.065 125.74,150.843 131.151,132.617 116.061,121.053 135.066,120.567 141.401,102.642 "
     id="polygon3073-0-1-7-3-6-3-1-1-6-6-3-3-1-1-0-9-8-1-3-5"
     style="fill:#fcb000;fill-opacity:1;fill-rule:evenodd"
     transform="matrix(0.75805781,0,0,0.75805781,136.0412,393.65225)" /><polygon
     clip-rule="evenodd"
     points="135.066,120.567 141.401,102.642 147.736,120.567 166.742,121.053 151.651,132.617 157.062,150.843 141.401,140.065 125.74,150.843 131.151,132.617 116.061,121.053 "
     id="polygon3073-0-1-7-3-6-3-1-1-6-6-3-3-1-1-0-9-8-1-3-8-96"
     style="fill:#fcb000;fill-opacity:1;fill-rule:evenodd"
     transform="matrix(0.75805781,0,0,0.75805781,203.10572,389.65225)" /><polygon
     clip-rule="evenodd"
     points="151.651,132.617 157.062,150.843 141.401,140.065 125.74,150.843 131.151,132.617 116.061,121.053 135.066,120.567 141.401,102.642 147.736,120.567 166.742,121.053 "
     id="polygon3073-0-1-7-3-6-3-1-1-6-6-3-3-1-1-0-9-8-1-3-8-96-1"
     style="fill:#fcb000;fill-opacity:1;fill-rule:evenodd"
     transform="matrix(0.75805781,0,0,0.75805781,271.34902,393.65225)" /><polygon
     clip-rule="evenodd"
     points="135.066,120.567 141.401,102.642 147.736,120.567 166.742,121.053 151.651,132.617 157.062,150.843 141.401,140.065 125.74,150.843 131.151,132.617 116.061,121.053 "
     id="polygon3073-0-1-7-3-6-3-1-1-6-6-3-3-1-1-0-9-8-1-3-8-96-1-7"
     style="fill:#fcb000;fill-opacity:1;fill-rule:evenodd"
     transform="matrix(0.75805781,0,0,0.75805781,338.96781,393.65225)" /><polygon
     clip-rule="evenodd"
     points="141.401,140.065 125.74,150.843 131.151,132.617 116.061,121.053 135.066,120.567 141.401,102.642 147.736,120.567 166.742,121.053 151.651,132.617 157.062,150.843 "
     id="polygon3073-0-1-7-3-6-3-1-1-6-6-3-3-1-1-0-9-8-1-3-8-96-5"
     style="fill:#fcb000;fill-opacity:1;fill-rule:evenodd"
     transform="matrix(0.75805781,0,0,0.75805781,109.50734,437.97168)" /><polygon
     clip-rule="evenodd"
     points="147.736,120.567 166.742,121.053 151.651,132.617 157.062,150.843 141.401,140.065 125.74,150.843 131.151,132.617 116.061,121.053 135.066,120.567 141.401,102.642 "
     id="polygon3073-0-1-7-3-6-3-1-1-6-6-3-3-1-1-0-9-8-1-3-8-96-5-4"
     style="fill:#fcb000;fill-opacity:1;fill-rule:evenodd"
     transform="matrix(0.75805781,0,0,0.75805781,300.17014,438.54668)" /><polygon
     clip-rule="evenodd"
     points="116.061,121.053 135.066,120.567 141.401,102.642 147.736,120.567 166.742,121.053 151.651,132.617 157.062,150.843 141.401,140.065 125.74,150.843 131.151,132.617 "
     id="polygon3073-0-1-7-3-6-3-1-1-6-6-3-3-1-1-0-9-8-1-3-8-96-5-4-0"
     style="fill:#fcb000;fill-opacity:1;fill-rule:evenodd"
     transform="matrix(0.75805781,0,0,0.75805781,172.13786,432.19139)" /><polygon
     clip-rule="evenodd"
     points="116.061,121.053 135.066,120.567 141.401,102.642 147.736,120.567 166.742,121.053 151.651,132.617 157.062,150.843 141.401,140.065 125.74,150.843 131.151,132.617 "
     id="polygon3073-0-1-7-3-6-3-1-1-6-6-3-3-1-1-0-9-8-1-3-8-96-5-4-0-4"
     style="fill:#fcb000;fill-opacity:1;fill-rule:evenodd"
     transform="matrix(0.75805781,0,0,0.75805781,235.87688,433.1745)" /><polygon
     clip-rule="evenodd"
     points="141.401,140.065 125.74,150.843 131.151,132.617 116.061,121.053 135.066,120.567 141.401,102.642 147.736,120.567 166.742,121.053 151.651,132.617 157.062,150.843 "
     id="polygon3073-0-1-7-3-6-3-1-1-6-6-3-3-1-1-0-9-8-1-3-8-96-5-4-0-46"
     style="fill:#fcb000;fill-opacity:1;fill-rule:evenodd"
     transform="matrix(0.75805781,0,0,0.75805781,144.9795,481.99537)" /><polygon
     clip-rule="evenodd"
     points="166.742,121.053 151.651,132.617 157.062,150.843 141.401,140.065 125.74,150.843 131.151,132.617 116.061,121.053 135.066,120.567 141.401,102.642 147.736,120.567 "
     id="polygon3073-0-1-7-3-6-3-1-1-6-6-3-3-1-1-0-9-8-1-3-8-96-5-4-0-46-4"
     style="fill:#fcb000;fill-opacity:1;fill-rule:evenodd"
     transform="matrix(0.75805781,0,0,0.75805781,262.14374,482.33262)" /><polygon
     clip-rule="evenodd"
     points="116.061,121.053 135.066,120.567 141.401,102.642 147.736,120.567 166.742,121.053 151.651,132.617 157.062,150.843 141.401,140.065 125.74,150.843 131.151,132.617 "
     id="polygon3073-0-1-7-3-6-3-1-1-6-6-3-3-1-1-0-9-8-1-3-8-96-5-4-0-46-4-4"
     style="fill:#fcb000;fill-opacity:1;fill-rule:evenodd"
     transform="matrix(0.75805781,0,0,0.75805781,204.83874,474.55233)" /><polygon
     clip-rule="evenodd"
     points="125.74,150.843 131.151,132.617 116.061,121.053 135.066,120.567 141.401,102.642 147.736,120.567 166.742,121.053 151.651,132.617 157.062,150.843 141.401,140.065 "
     id="polygon3073-0-1-7-3-6-3-1-1-6-6-3-3-1-1-0-9-8-1-3-8-96-5-4-0-46-4-4-4"
     style="fill:#fcb000;fill-opacity:1;fill-rule:evenodd"
     transform="matrix(0.75805781,0,0,0.75805781,204.62173,527.54354)" /></g></svg>